PathFileType	4	(X/Y/Z)	./resultDataOpenSim/trcMotMarkerGrf/sub09/qtm-01-02.trc
DataRate	CameraRate	NumFrames	NumMarkers	Units	OrigDataRate	OrigDataStartFrame	OrigNumFrames
250.000000	250.000000	9	24	m	250.000000	186	495
Frame#	Time	L.Toe.Tip			R.Toe.Tip			L.Ankle.Lat			R.Ankle.Lat			L.Ankle.Med			R.Ankle.Med			L.Heel			R.Heel			L.Knee.Lat			R.Knee.Lat			L.Knee.Med			R.Knee.Med			L.Thigh.Upper			R.Thigh.Upper			L.ASIS			R.ASIS			V.Sacral			L.Acromium			R.Acromium			C7			L.Elbow			R.Elbow			L.Wrist.Lat			R.Wrist.Lat
		X1	Y1	Z1	X2	Y2	Z2	X3	Y3	Z3	X4	Y4	Z4	X5	Y5	Z5	X6	Y6	Z6	X7	Y7	Z7	X8	Y8	Z8	X9	Y9	Z9	X10	Y10	Z10	X11	Y11	Z11	X12	Y12	Z12	X13	Y13	Z13	X14	Y14	Z14	X15	Y15	Z15	X16	Y16	Z16	X17	Y17	Z17	X18	Y18	Z18	X19	Y19	Z19	X20	Y20	Z20	X21	Y21	Z21	X22	Y22	Z22	X23	Y23	Z23	X24	Y24	Z24

186	0.74	0.15514216	0.041136685	0.026821921	-0.64535453	0.048940627	0.13801249	0.0054461336	0.073607962	-0.014799403	-0.73267579	0.16995667	0.17622491	0.023092856	0.093605125	0.081845816	-0.68571505	0.18162765	0.089669822	-0.064990748	0.037426928	0.03049356	-0.784566	0.19825679	0.11525584	0.010543467	0.48727873	-0.063904175	-0.37199116	0.45193979	0.24852631	0.0087136438	0.49159134	0.061927395	-0.3634276	0.42743566	0.12005578	-0.21447171	0.84447399	-0.11007051	-0.2986751	0.83673604	0.25615808	-0.15743053	0.93249922	-0.035260634	-0.18251825	0.91919137	0.20562968	-0.33796463	0.97164161	0.067554564	-0.18772899	1.371672	-0.087268183	-0.22359333	1.3854046	0.24304797	-0.27383896	1.4279259	0.073099016	-0.33846086	1.0398278	-0.14339949	-0.32993053	1.0264622	0.32511659	-0.23574647	0.79839542	-0.17551729	-0.12324129	0.84539401	0.31978863
187	0.744	0.15523788	0.040881467	0.027206776	-0.64289094	0.050635252	0.13861423	0.0057454499	0.073433633	-0.014473572	-0.72605697	0.17520105	0.1769555	0.023186239	0.093248677	0.082296988	-0.67795218	0.18510997	0.090835543	-0.064988442	0.037382636	0.030605572	-0.77645112	0.20485192	0.11557276	0.015817854	0.48657724	-0.064012681	-0.36301292	0.45230668	0.25081332	0.013903295	0.49080899	0.061960613	-0.35217245	0.42556012	0.12128593	-0.2075728	0.84524119	-0.11075186	-0.29127304	0.83610214	0.25573935	-0.15064696	0.93328181	-0.036242445	-0.1754571	0.91915685	0.20454724	-0.33186427	0.97150277	0.064887234	-0.18093064	1.3721816	-0.08748452	-0.21629034	1.3857084	0.24277195	-0.26720146	1.4282238	0.072941118	-0.3314838	1.0403441	-0.14402549	-0.32391004	1.0273027	0.32438443	-0.22738057	0.79919393	-0.17614508	-0.1185988	0.84447923	0.31981602
188	0.748	0.15531535	0.04068802	0.02753292	-0.6401584	0.052405251	0.13925269	0.0060388476	0.073252953	-0.014170224	-0.71894716	0.18040053	0.17763496	0.023308645	0.092906466	0.082716351	-0.66989959	0.18856278	0.091996199	-0.064990272	0.037345001	0.030757085	-0.76796887	0.21136918	0.1159278	0.020827917	0.48581602	-0.064096834	-0.35320217	0.45223605	0.25250734	0.018735434	0.48982983	0.062011928	-0.34075533	0.42379962	0.12240454	-0.20057447	0.8459084	-0.11138889	-0.28394918	0.83553363	0.25528312	-0.14393317	0.93397432	-0.03712576	-0.16851055	0.91918392	0.20353079	-0.32593346	0.97149725	0.062497706	-0.17417601	1.3727159	-0.087695069	-0.20904864	1.3860369	0.24250846	-0.26055279	1.4286064	0.07277401	-0.3245553	1.0408701	-0.14471242	-0.31786167	1.0281513	0.32370336	-0.21897288	0.80003634	-0.1767764	-0.11396926	0.8435767	0.31983301
189	0.752	0.15539406	0.040542967	0.027771831	-0.63715675	0.054223557	0.13993644	0.0063698063	0.073065949	-0.013930407	-0.71136088	0.18552986	0.17827205	0.023512124	0.092599485	0.083052185	-0.66164929	0.19206113	0.093113691	-0.064975668	0.037328594	0.030900307	-0.75909883	0.21778154	0.11632357	0.025639927	0.48501934	-0.064158655	-0.34298423	0.45187241	0.25363959	0.02323742	0.48874945	0.062051081	-0.32921782	0.42215722	0.12337861	-0.19349775	0.84648378	-0.11201049	-0.27668774	0.8350492	0.25479672	-0.13730089	0.93460053	-0.037909002	-0.16167628	0.91928618	0.20259649	-0.31979351	0.9715853	0.060525231	-0.1674354	1.3732702	-0.087909313	-0.20189319	1.3863922	0.2422526	-0.25388188	1.4290718	0.072589896	-0.31767945	1.0413889	-0.14542084	-0.31178845	1.0290023	0.32307774	-0.21053072	0.80092025	-0.17740014	-0.10935675	0.84268505	0.31984494
190	0.756	0.15547027	0.040434575	0.027933937	-0.63385567	0.056074502	0.14068312	0.0067484913	0.07288316	-0.013786924	-0.70332049	0.19057356	0.17887364	0.023778541	0.092344439	0.083276431	-0.65315287	0.19553098	0.09416931	-0.064945013	0.037331829	0.030985018	-0.74985167	0.22405059	0.11677753	0.030309844	0.48420233	-0.064176468	-0.33256965	0.45138034	0.25438029	0.027412154	0.48764682	0.062048884	-0.31759134	0.42063048	0.12420104	-0.18637792	0.84699168	-0.11263366	-0.26951143	0.83467012	0.25428292	-0.13075618	0.93519383	-0.038602	-0.15496969	0.91947211	0.20175062	-0.31343445	0.97172711	0.058860291	-0.16070564	1.373844	-0.088125904	-0.19484049	1.3867783	0.24200248	-0.2471885	1.429619	0.07238843	-0.31086344	1.0418928	-0.14611856	-0.30569336	1.0298519	0.3225114	-0.20206169	0.80184478	-0.17800461	-0.1047706	0.84180642	0.31985592
191	0.76	0.15553355	0.040355737	0.028029342	-0.63019996	0.057957965	0.14151778	0.0071411913	0.072708564	-0.013749925	-0.69484463	0.19551835	0.17946115	0.024052404	0.092147818	0.083390163	-0.64432509	0.19885565	0.095146334	-0.064913412	0.037341906	0.030988801	-0.74025653	0.23013901	0.11730041	0.034845435	0.48340514	-0.064144304	-0.32175039	0.45069599	0.25471062	0.031200631	0.48657726	0.061961067	-0.30589096	0.41924395	0.12489588	-0.17928996	0.84746349	-0.11324276	-0.26246262	0.83441127	0.2537481	-0.12428843	0.93578547	-0.039218545	-0.14841356	0.91974878	0.20099018	-0.30730405	0.97199852	0.057674412	-0.15399454	1.3744425	-0.088342653	-0.18789187	1.3872056	0.24176492	-0.2404784	1.4302498	0.072179576	-0.30410426	1.0423865	-0.14678926	-0.29957713	1.0306986	0.32200623	-0.19357098	0.80281178	-0.17858422	-0.10021357	0.8409466	0.31986787
192	0.764	0.1555741	0.040303118	0.028060905	-0.62613505	0.059888141	0.14245897	0.0074887797	0.072530377	-0.013792925	-0.68594393	0.20034665	0.18006953	0.024285729	0.092002513	0.083419725	-0.63515895	0.20201338	0.096015802	-0.06489914	0.03734592	0.030928005	-0.73033439	0.23603101	0.11786143	0.039183763	0.48272939	-0.064134913	-0.31007886	0.44962121	0.25446161	0.034515438	0.48557206	0.061742987	-0.29412297	0.41804696	0.12549289	-0.17234048	0.84792979	-0.11379991	-0.25557532	0.83427747	0.2532012	-0.11787627	0.93639371	-0.039767516	-0.14201293	0.92012673	0.20030765	-0.30175893	0.97254709	0.05725359	-0.14730131	1.3750724	-0.088561991	-0.181044	1.3876838	0.24154921	-0.23375795	1.4309656	0.071982686	-0.2973644	1.0428788	-0.14745666	-0.29343701	1.0315451	0.3215601	-0.18506185	0.80382238	-0.17913813	-0.095683652	0.84011134	0.31988218
193	0.768	0.15558243	0.040269446	0.028050304	-0.62161711	0.061891895	0.14349275	0.0077524611	0.072344084	-0.013865081	-0.67664973	0.20502757	0.18070276	0.02445828	0.091893059	0.083404966	-0.62568935	0.20506489	0.096771672	-0.064913026	0.037337383	0.030842711	-0.72009942	0.24174699	0.11839764	0.043233753	0.482311	-0.064303647	-0.29735435	0.44818843	0.25368091	0.037379015	0.48465454	0.061404352	-0.28231099	0.41708465	0.12598813	-0.16560481	0.84842412	-0.11428074	-0.24886855	0.83427535	0.25264371	-0.11152812	0.93701677	-0.040257532	-0.13575216	0.92061116	0.19969824	-0.29646556	0.97340306	0.057345143	-0.14061562	1.3757392	-0.088787298	-0.17429617	1.3882146	0.2413591	-0.2270347	1.4317675	0.071811532	-0.29056063	1.0433777	-0.14825134	-0.28727266	1.0324036	0.32116626	-0.17653924	0.80487693	-0.17966454	-0.091183724	0.83930398	0.31989871
194	0.772	0.15555162	0.040240172	0.028043084	-0.6165741	0.064011548	0.14458639	0.0079376212	0.072169606	-0.013922231	-0.66704474	0.20951523	0.1813067	0.024573273	0.091804447	0.083382594	-0.61592952	0.2080886	0.097436542	-0.064954971	0.037315929	0.030770483	-0.70957316	0.24733383	0.11887269	0.046957912	0.48218589	-0.064751268	-0.2839523	0.44681322	0.25281145	0.039985006	0.48385404	0.061022623	-0.27049993	0.41638372	0.12635292	-0.15908	0.8489909	-0.11469485	-0.24234275	0.83442238	0.2520723	-0.105304	0.93763903	-0.040704637	-0.12961153	0.92119196	0.19916643	-0.29079545	0.97445384	0.057315279	-0.13392973	1.3764481	-0.089016543	-0.16764708	1.3887964	0.24119419	-0.2203039	1.4326513	0.071643662	-0.28360948	1.0438925	-0.14937453	-0.28108847	1.0332939	0.32081428	-0.16800899	0.80598032	-0.18015689	-0.086721309	0.83852832	0.31991516
